# 3ds Max Wavefront OBJ Exporter v0.99 - (c)2007 guruware
# File Created: 14.04.2022 13:08:30

mtllib hacha_opt.mtl

#
# object HACHA
#

v  -2.0746 0.0500 5.9000
v  -2.0746 -0.0500 3.1000
v  -2.0746 -0.0500 5.9000
v  -2.0746 0.0500 3.1000
v  -1.9746 -0.0500 5.7000
v  -1.9746 -0.1500 3.3000
v  -1.9746 -0.1500 5.7000
v  -1.9746 -0.0500 3.3000
v  -1.9746 0.1500 5.7000
v  -1.9746 0.0500 3.3000
v  -1.9746 0.0500 5.7000
v  -1.9746 0.1500 3.3000
v  -1.7746 -0.1500 5.3000
v  -1.7746 -0.2500 3.7000
v  -1.7746 -0.2500 5.3000
v  -1.7746 -0.1500 3.7000
v  -1.7746 0.2500 5.3000
v  -1.7746 0.1500 3.7000
v  -1.7746 0.1500 5.3000
v  -1.7746 0.2500 3.7000
v  -1.5746 -0.2500 5.1000
v  -1.5746 -0.3500 3.9000
v  -1.5746 -0.3500 5.1000
v  -1.5746 -0.2500 3.9000
v  -1.5746 0.3500 5.1000
v  -1.5746 0.2500 3.9000
v  -1.5746 0.2500 5.1000
v  -1.5746 0.3500 3.9000
v  -0.2746 -0.2500 -1.7000
v  -0.2746 -0.3500 -5.9000
v  -0.2746 -0.3500 4.0000
v  -0.2746 -0.2500 -4.0000
v  -0.2746 -0.1500 0.4000
v  -0.2746 -0.1500 -1.5000
v  -0.2746 -0.1500 -1.7000
v  -0.2746 -0.1500 -4.0000
v  -0.2746 -0.1500 -4.4000
v  -0.2746 -0.1500 -5.8000
v  -0.2746 -0.0500 0.4000
v  -0.2746 -0.0500 -1.5000
v  -0.2746 -0.0500 -4.4000
v  -0.2746 -0.0500 -5.8000
v  -0.2746 0.1500 3.4000
v  -0.2746 0.1500 -0.2000
v  -0.2746 0.1500 -1.7000
v  -0.2746 0.1500 -5.8000
v  -0.2746 0.2500 3.4000
v  -0.2746 0.2500 -0.2000
v  -0.2746 0.2500 -1.7000
v  -0.2746 0.2500 -5.8000
v  -0.2746 0.3500 4.0000
v  -0.2746 0.3500 -5.9000
v  0.4254 -0.1500 -1.2000
v  0.4254 -0.2500 -1.3000
v  0.4254 -0.2500 -1.2000
v  0.4254 -0.1500 -1.3000
v  0.4254 0.2500 -1.2000
v  0.4254 0.2500 -1.3000
v  -1.9746 -0.0500 5.9000
v  -1.9746 -0.0500 5.8000
v  -1.9746 0.0500 5.9000
v  -1.9746 0.0500 5.8000
v  -1.9746 -0.0500 3.1000
v  -1.9746 0.0500 3.1000
v  -1.8746 -0.1500 5.7000
v  -1.8746 -0.1500 5.5000
v  -1.8746 -0.0500 5.7000
v  -1.8746 -0.0500 5.8000
v  -1.8746 0.0500 5.8000
v  -1.8746 0.0500 5.7000
v  -1.8746 0.1500 5.7000
v  -1.8746 0.1500 5.5000
v  -1.8746 -0.1500 3.5000
v  -1.8746 -0.1500 3.3000
v  -1.8746 0.1500 3.5000
v  -1.8746 0.1500 3.3000
v  -1.7746 -0.1500 5.5000
v  -1.7746 0.1500 5.5000
v  -1.7746 -0.1500 3.5000
v  -1.7746 0.1500 3.5000
v  -1.6746 -0.2500 5.3000
v  -1.6746 -0.2500 5.2000
v  -1.6746 0.2500 5.3000
v  -1.6746 0.2500 5.2000
v  -1.6746 -0.2500 3.8000
v  -1.6746 -0.2500 3.7000
v  -1.6746 0.2500 3.8000
v  -1.6746 0.2500 3.7000
v  -1.5746 -0.2500 5.2000
v  -1.5746 0.2500 5.2000
v  -1.5746 -0.2500 3.8000
v  -1.5746 0.2500 3.8000
v  -1.4746 -0.3500 5.1000
v  -1.4746 -0.3500 5.0000
v  -1.4746 0.3500 5.1000
v  -1.4746 0.3500 5.0000
v  -1.4746 -0.3500 4.0000
v  -1.4746 -0.3500 3.9000
v  -1.4746 0.3500 4.0000
v  -1.4746 0.3500 3.9000
v  -0.1746 -0.2500 -1.2000
v  -0.1746 -0.2500 -1.3000
v  -0.1746 -0.1500 -1.2000
v  -0.1746 -0.1500 -1.3000
v  -0.1746 -0.0500 -1.2000
v  -0.1746 -0.0500 -1.3000
v  -0.1746 0.2500 -1.2000
v  -0.1746 0.2500 -1.3000
v  0.5254 -0.3500 4.0000
v  0.5254 -0.3500 -5.9000
v  0.5254 -0.2500 -0.1000
v  0.5254 -0.2500 -1.6000
v  0.5254 -0.2500 -5.6000
v  0.5254 -0.2500 -5.8000
v  0.5254 -0.1500 -0.1000
v  0.5254 -0.1500 -1.6000
v  0.5254 -0.1500 -2.5000
v  0.5254 -0.1500 -5.2000
v  0.5254 -0.1500 -5.6000
v  0.5254 -0.1500 -5.8000
v  0.5254 -0.0500 -2.5000
v  0.5254 -0.0500 -5.2000
v  0.5254 0.0500 2.9000
v  0.5254 0.0500 -0.1000
v  0.5254 0.0500 -1.8000
v  0.5254 0.0500 -5.8000
v  0.5254 0.1500 2.9000
v  0.5254 0.1500 -0.1000
v  0.5254 0.1500 -1.8000
v  0.5254 0.1500 -5.8000
v  0.5254 -0.3500 5.0000
v  0.5254 0.3500 5.0000
v  0.5254 0.3500 4.0000
v  0.5254 0.3500 -5.9000
v  -0.0746 0.2500 -1.3000
v  0.3254 0.2500 -1.3000
v  -0.0746 0.2500 -1.2000
v  0.3254 0.2500 -1.2000
v  -0.1746 -0.2500 -5.9000
v  -0.1746 0.2500 -5.9000
v  -0.0746 -0.1500 -5.9000
v  -0.0746 0.1500 -5.9000
v  0.0254 -0.0500 -5.9000
v  0.0254 0.0500 -5.9000
v  0.2254 -0.1500 -5.9000
v  0.2254 -0.0500 -5.9000
v  0.3254 -0.2500 -5.9000
v  0.3254 0.0500 -5.9000
v  0.4254 0.1500 -5.9000
v  0.4254 0.2500 -5.9000
v  0.0254 -0.3500 3.2000
v  0.1254 -0.3500 3.2000
v  0.3254 -0.3500 2.5000
v  0.4254 -0.3500 2.5000
v  -0.1746 -0.3500 2.0000
v  -0.0746 -0.3500 2.0000
v  0.0254 -0.3500 1.6000
v  0.1254 -0.3500 1.6000
v  0.1254 -0.3500 1.2000
v  0.2254 -0.3500 1.2000
v  -0.1746 -0.3500 -0.9000
v  -0.0746 -0.3500 -0.9000
v  0.3254 -0.3500 -1.0000
v  0.4254 -0.3500 -1.0000
v  0.1254 -0.3500 -1.1000
v  0.2254 -0.3500 -1.1000
v  -0.1746 -0.3500 -1.2000
v  0.4254 -0.3500 -1.2000
v  -0.1746 -0.3500 -1.3000
v  0.4254 -0.3500 -1.3000
v  -0.0746 -0.3500 -1.5000
v  0.4254 -0.3500 -1.5000
v  -0.0746 -0.3500 -1.7000
v  0.3254 -0.3500 -1.7000
v  -0.0746 -0.3500 -1.9000
v  0.2254 -0.3500 -1.9000
v  -0.0746 -0.3500 -2.0000
v  0.2254 -0.3500 -2.0000
v  0.0254 -0.3500 -2.2000
v  0.1254 -0.3500 -2.2000
v  0.0254 -0.3500 -5.5000
v  0.1254 -0.3500 -5.5000
v  -0.1746 -0.3500 -5.7000
v  0.3254 -0.3500 -5.7000
v  -0.1746 -0.3500 -5.8000
v  0.4254 -0.3500 -5.8000
v  -1.0746 0.3500 4.9000
v  -0.9746 0.3500 4.9000
v  -0.8746 0.3500 4.9000
v  -0.7746 0.3500 4.9000
v  -1.0746 0.3500 4.8000
v  -0.9746 0.3500 4.8000
v  -0.8746 0.3500 4.8000
v  -0.7746 0.3500 4.8000
v  -0.6746 0.3500 4.8000
v  -1.0746 0.3500 4.7000
v  -0.9746 0.3500 4.7000
v  -0.8746 0.3500 4.7000
v  -0.7746 0.3500 4.7000
v  -0.6746 0.3500 4.7000
v  -0.5746 0.3500 4.7000
v  -1.0746 0.3500 4.6000
v  -0.9746 0.3500 4.6000
v  -0.8746 0.3500 4.6000
v  -0.7746 0.3500 4.6000
v  -0.6746 0.3500 4.6000
v  -0.5746 0.3500 4.6000
v  -0.4746 0.3500 4.6000
v  -0.9746 0.3500 4.5000
v  -0.8746 0.3500 4.5000
v  -0.7746 0.3500 4.5000
v  -0.6746 0.3500 4.5000
v  -0.5746 0.3500 4.5000
v  -0.4746 0.3500 4.5000
v  -0.8746 0.3500 4.4000
v  -0.7746 0.3500 4.4000
v  -0.6746 0.3500 4.4000
v  -0.5746 0.3500 4.4000
v  -0.4746 0.3500 4.4000
v  -0.7746 0.3500 4.3000
v  -0.6746 0.3500 4.3000
v  -0.5746 0.3500 4.3000
v  -0.4746 0.3500 4.3000
v  -0.3746 0.3500 4.3000
v  -0.4746 0.3500 4.2000
v  -0.3746 0.3500 4.2000
v  0.0254 0.3500 3.9000
v  0.1254 0.3500 3.9000
v  0.1254 0.3500 3.5000
v  0.2254 0.3500 3.5000
v  -0.1746 0.3500 3.4000
v  -0.0746 0.3500 3.4000
v  0.0254 0.3500 2.9000
v  0.1254 0.3500 2.9000
v  -0.1746 0.3500 1.6000
v  -0.0746 0.3500 1.6000
v  -0.1746 0.3500 0.7000
v  -0.0746 0.3500 0.7000
v  0.3254 0.3500 -1.1000
v  0.4254 0.3500 -1.1000
v  0.1254 0.3500 -1.2000
v  0.2254 0.3500 -1.2000
v  -0.1746 0.3500 -1.3000
v  -0.0746 0.3500 -1.3000
v  -0.1746 0.3500 -1.7000
v  -0.0746 0.3500 -1.7000
v  0.1254 0.3500 -2.1000
v  0.2254 0.3500 -2.1000
v  0.3254 0.3500 -3.7000
v  0.4254 0.3500 -3.7000
v  0.3254 0.3500 -3.9000
v  0.4254 0.3500 -3.9000
v  0.1254 0.3500 -4.5000
v  0.2254 0.3500 -4.5000
v  -0.0746 0.3500 -5.4000
v  0.3254 0.3500 -5.4000
v  -0.1746 0.3500 -5.5000
v  0.4254 0.3500 -5.5000
v  -0.0746 0.3500 -5.7000
v  0.4254 0.3500 -5.7000
v  -0.0746 0.3500 -5.8000
v  0.4254 0.3500 -5.8000
# 262 vertices

vn -1.0000 0.0000 -0.0000
vn 1.0000 0.0000 -0.0000
vn 0.0000 0.0000 1.0000
vn 0.0000 0.0000 -1.0000
vn 0.0000 -1.0000 -0.0000
vn 0.0000 1.0000 -0.0000
# 6 vertex normals

vt 0.9746 0.5000 0.0000
vt 0.3730 0.5000 0.0000
vt 0.5371 0.5000 0.0000
vt 0.9590 0.5000 0.0000
# 4 texture coords

o HACHA
g HACHA
usemtl palette
s 1
f 1/1/1 2/1/1 3/1/1 
f 4/1/1 2/1/1 1/1/1 
f 5/1/1 6/1/1 7/1/1 
f 8/1/1 6/1/1 5/1/1 
f 9/1/1 10/1/1 11/1/1 
f 12/1/1 10/1/1 9/1/1 
f 13/1/1 14/1/1 15/1/1 
f 16/1/1 14/1/1 13/1/1 
f 17/1/1 18/1/1 19/1/1 
f 20/1/1 18/1/1 17/1/1 
f 21/1/1 22/1/1 23/1/1 
f 24/1/1 22/1/1 21/1/1 
f 25/1/1 26/1/1 27/1/1 
f 28/1/1 26/1/1 25/1/1 
f 29/2/1 30/2/1 31/2/1 
f 32/2/1 30/2/1 29/2/1 
f 33/2/1 29/2/1 31/2/1 
f 34/2/1 29/2/1 33/2/1 
f 35/3/1 32/3/1 29/3/1 
f 35/2/1 29/2/1 34/2/1 
f 36/2/1 30/2/1 32/2/1 
f 36/3/1 32/3/1 35/3/1 
f 37/2/1 30/2/1 36/2/1 
f 38/2/1 30/2/1 37/2/1 
f 39/3/1 34/3/1 33/3/1 
f 39/2/1 33/2/1 31/2/1 
f 40/2/1 35/2/1 34/2/1 
f 40/3/1 34/3/1 39/3/1 
f 40/2/1 36/2/1 35/2/1 
f 40/2/1 37/2/1 36/2/1 
f 41/3/1 38/3/1 37/3/1 
f 41/2/1 37/2/1 40/2/1 
f 42/2/1 30/2/1 38/2/1 
f 42/3/1 38/3/1 41/3/1 
f 43/2/1 39/2/1 31/2/1 
f 43/2/1 41/2/1 40/2/1 
f 43/2/1 42/2/1 41/2/1 
f 43/2/1 40/2/1 39/2/1 
f 44/2/1 42/2/1 43/2/1 
f 45/2/1 42/2/1 44/2/1 
f 46/2/1 30/2/1 42/2/1 
f 46/2/1 42/2/1 45/2/1 
f 47/2/1 43/2/1 31/2/1 
f 47/3/1 44/3/1 43/3/1 
f 48/2/1 45/2/1 44/2/1 
f 48/3/1 44/3/1 47/3/1 
f 49/3/1 46/3/1 45/3/1 
f 49/2/1 45/2/1 48/2/1 
f 50/2/1 30/2/1 46/2/1 
f 50/3/1 46/3/1 49/3/1 
f 51/2/1 47/2/1 31/2/1 
f 51/2/1 49/2/1 48/2/1 
f 51/2/1 50/2/1 49/2/1 
f 51/2/1 48/2/1 47/2/1 
f 52/2/1 30/2/1 50/2/1 
f 52/2/1 50/2/1 51/2/1 
f 53/3/1 54/3/1 55/3/1 
f 56/3/1 54/3/1 53/3/1 
f 57/2/1 56/2/1 53/2/1 
f 58/2/1 56/2/1 57/2/1 
f 59/1/2 60/1/2 61/1/2 
f 61/1/2 60/1/2 62/1/2 
f 8/1/2 63/1/2 10/1/2 
f 10/1/2 63/1/2 64/1/2 
f 65/1/2 66/1/2 67/1/2 
f 68/1/2 67/1/2 69/1/2 
f 67/1/2 66/1/2 70/1/2 
f 69/1/2 67/1/2 70/1/2 
f 70/1/2 66/1/2 71/1/2 
f 71/1/2 66/1/2 72/1/2 
f 73/1/2 74/1/2 75/1/2 
f 75/1/2 74/1/2 76/1/2 
f 77/1/2 13/1/2 78/1/2 
f 78/1/2 13/1/2 19/1/2 
f 16/1/2 79/1/2 18/1/2 
f 18/1/2 79/1/2 80/1/2 
f 81/1/2 82/1/2 83/1/2 
f 83/1/2 82/1/2 84/1/2 
f 85/1/2 86/1/2 87/1/2 
f 87/1/2 86/1/2 88/1/2 
f 89/1/2 21/1/2 90/1/2 
f 90/1/2 21/1/2 27/1/2 
f 24/1/2 91/1/2 26/1/2 
f 26/1/2 91/1/2 92/1/2 
f 93/1/2 94/1/2 95/1/2 
f 95/1/2 94/1/2 96/1/2 
f 97/1/2 98/1/2 99/1/2 
f 99/1/2 98/1/2 100/1/2 
f 101/2/2 102/2/2 103/2/2 
f 103/2/2 102/2/2 104/2/2 
f 103/3/2 104/3/2 105/3/2 
f 105/3/2 104/3/2 106/3/2 
f 105/2/2 106/2/2 107/2/2 
f 107/2/2 106/2/2 108/2/2 
f 109/2/2 110/2/2 111/2/2 
f 111/2/2 110/2/2 112/2/2 
f 112/2/2 110/2/2 113/2/2 
f 113/2/2 110/2/2 114/2/2 
f 109/2/2 111/2/2 115/2/2 
f 111/3/2 112/3/2 115/3/2 
f 112/2/2 113/2/2 116/2/2 
f 115/3/2 112/3/2 116/3/2 
f 116/2/2 113/2/2 117/2/2 
f 117/2/2 113/2/2 118/2/2 
f 113/3/2 114/3/2 119/3/2 
f 118/2/2 113/2/2 119/2/2 
f 114/2/2 110/2/2 120/2/2 
f 119/3/2 114/3/2 120/3/2 
f 117/3/2 118/3/2 121/3/2 
f 115/2/2 116/2/2 121/2/2 
f 116/2/2 117/2/2 121/2/2 
f 118/2/2 119/2/2 122/2/2 
f 121/3/2 118/3/2 122/3/2 
f 119/2/2 120/2/2 122/2/2 
f 115/2/2 121/2/2 123/2/2 
f 109/2/2 115/2/2 123/2/2 
f 121/2/2 122/2/2 123/2/2 
f 123/2/2 122/2/2 124/2/2 
f 124/2/2 122/2/2 125/2/2 
f 122/2/2 120/2/2 126/2/2 
f 125/2/2 122/2/2 126/2/2 
f 120/2/2 110/2/2 126/2/2 
f 123/3/2 124/3/2 127/3/2 
f 109/2/2 123/2/2 127/2/2 
f 124/2/2 125/2/2 128/2/2 
f 127/3/2 124/3/2 128/3/2 
f 125/3/2 126/3/2 129/3/2 
f 128/2/2 125/2/2 129/2/2 
f 126/2/2 110/2/2 130/2/2 
f 129/3/2 126/3/2 130/3/2 
f 131/1/2 109/1/2 132/1/2 
f 109/2/2 127/2/2 133/2/2 
f 132/1/2 109/1/2 133/1/2 
f 128/2/2 129/2/2 133/2/2 
f 129/2/2 130/2/2 133/2/2 
f 127/2/2 128/2/2 133/2/2 
f 130/2/2 110/2/2 134/2/2 
f 133/2/2 130/2/2 134/2/2 
f 59/1/3 1/1/3 3/1/3 
f 61/1/3 1/1/3 59/1/3 
f 68/1/3 62/1/3 60/1/3 
f 69/1/3 62/1/3 68/1/3 
f 65/1/3 5/1/3 7/1/3 
f 67/1/3 5/1/3 65/1/3 
f 70/1/3 9/1/3 11/1/3 
f 71/1/3 9/1/3 70/1/3 
f 77/1/3 72/1/3 66/1/3 
f 78/1/3 72/1/3 77/1/3 
f 81/1/3 13/1/3 15/1/3 
f 81/1/3 17/1/3 19/1/3 
f 81/1/3 19/1/3 13/1/3 
f 83/1/3 17/1/3 81/1/3 
f 89/1/3 84/1/3 82/1/3 
f 90/1/3 84/1/3 89/1/3 
f 93/1/3 21/1/3 23/1/3 
f 93/1/3 25/1/3 27/1/3 
f 93/1/3 27/1/3 21/1/3 
f 95/1/3 25/1/3 93/1/3 
f 131/1/3 96/1/3 94/1/3 
f 132/1/3 96/1/3 131/1/3 
f 135/2/3 104/2/3 102/2/3 
f 135/2/3 108/2/3 106/2/3 
f 135/2/3 106/2/3 104/2/3 
f 136/2/3 135/2/3 102/2/3 
f 54/2/3 136/2/3 102/2/3 
f 56/2/3 136/2/3 54/2/3 
f 58/2/3 136/2/3 56/2/3 
f 97/1/4 99/1/4 31/1/4 
f 31/1/4 99/1/4 51/1/4 
f 22/1/4 24/1/4 98/1/4 
f 26/1/4 28/1/4 98/1/4 
f 24/1/4 26/1/4 98/1/4 
f 98/1/4 28/1/4 100/1/4 
f 85/1/4 87/1/4 91/1/4 
f 91/1/4 87/1/4 92/1/4 
f 14/1/4 16/1/4 86/1/4 
f 18/1/4 20/1/4 86/1/4 
f 16/1/4 18/1/4 86/1/4 
f 86/1/4 20/1/4 88/1/4 
f 73/1/4 75/1/4 79/1/4 
f 79/1/4 75/1/4 80/1/4 
f 6/1/4 8/1/4 74/1/4 
f 10/1/4 12/1/4 74/1/4 
f 8/1/4 10/1/4 74/1/4 
f 74/1/4 12/1/4 76/1/4 
f 2/1/4 4/1/4 63/1/4 
f 63/1/4 4/1/4 64/1/4 
f 101/2/4 103/2/4 137/2/4 
f 105/2/4 107/2/4 137/2/4 
f 103/2/4 105/2/4 137/2/4 
f 101/2/4 137/2/4 138/2/4 
f 101/2/4 138/2/4 55/2/4 
f 55/2/4 138/2/4 53/2/4 
f 53/2/4 138/2/4 57/2/4 
f 30/2/4 52/2/4 139/2/4 
f 139/2/4 52/2/4 140/2/4 
f 139/3/4 140/3/4 141/3/4 
f 141/3/4 140/3/4 142/3/4 
f 141/2/4 142/2/4 143/2/4 
f 143/2/4 142/2/4 144/2/4 
f 139/3/4 141/3/4 145/3/4 
f 141/2/4 143/2/4 145/2/4 
f 143/3/4 144/3/4 146/3/4 
f 145/2/4 143/2/4 146/2/4 
f 30/2/4 139/2/4 147/2/4 
f 139/3/4 145/3/4 147/3/4 
f 145/3/4 146/3/4 147/3/4 
f 146/3/4 144/3/4 148/3/4 
f 147/3/4 146/3/4 148/3/4 
f 144/2/4 142/2/4 148/2/4 
f 142/3/4 140/3/4 149/3/4 
f 148/2/4 142/2/4 149/2/4 
f 147/2/4 148/2/4 149/2/4 
f 140/2/4 52/2/4 150/2/4 
f 149/3/4 140/3/4 150/3/4 
f 30/2/4 147/2/4 110/2/4 
f 147/2/4 149/2/4 110/2/4 
f 149/2/4 150/2/4 110/2/4 
f 150/2/4 52/2/4 134/2/4 
f 110/2/4 150/2/4 134/2/4 
f 94/1/5 93/1/5 23/1/5 
f 97/1/5 94/1/5 23/1/5 
f 97/1/5 131/1/5 94/1/5 
f 31/1/5 131/1/5 97/1/5 
f 109/1/5 131/1/5 31/1/5 
f 22/1/5 97/1/5 23/1/5 
f 98/1/5 97/1/5 22/1/5 
f 151/2/5 109/2/5 31/2/5 
f 152/2/5 109/2/5 151/2/5 
f 153/2/5 109/2/5 152/2/5 
f 154/2/5 109/2/5 153/2/5 
f 155/2/5 151/2/5 31/2/5 
f 156/2/5 151/2/5 155/2/5 
f 157/3/5 152/3/5 151/3/5 
f 157/2/5 151/2/5 156/2/5 
f 158/2/5 153/2/5 152/2/5 
f 158/3/5 152/3/5 157/3/5 
f 159/2/5 158/2/5 157/2/5 
f 159/2/5 153/2/5 158/2/5 
f 160/2/5 153/2/5 159/2/5 
f 161/3/5 156/3/5 155/3/5 
f 161/2/5 155/2/5 31/2/5 
f 162/2/5 157/2/5 156/2/5 
f 162/3/5 156/3/5 161/3/5 
f 162/2/5 159/2/5 157/2/5 
f 163/2/5 153/2/5 160/2/5 
f 163/3/5 154/3/5 153/3/5 
f 164/2/5 109/2/5 154/2/5 
f 164/3/5 154/3/5 163/3/5 
f 165/2/5 159/2/5 162/2/5 
f 165/2/5 162/2/5 161/2/5 
f 165/3/5 160/3/5 159/3/5 
f 166/2/5 163/2/5 160/2/5 
f 166/3/5 160/3/5 165/3/5 
f 166/2/5 164/2/5 163/2/5 
f 167/2/5 165/2/5 161/2/5 
f 167/2/5 161/2/5 31/2/5 
f 167/2/5 166/2/5 165/2/5 
f 168/2/5 164/2/5 166/2/5 
f 168/2/5 166/2/5 167/2/5 
f 168/2/5 109/2/5 164/2/5 
f 169/2/5 167/2/5 31/2/5 
f 169/3/5 168/3/5 167/3/5 
f 170/2/5 109/2/5 168/2/5 
f 170/3/5 168/3/5 169/3/5 
f 171/2/5 170/2/5 169/2/5 
f 172/2/5 109/2/5 170/2/5 
f 172/2/5 170/2/5 171/2/5 
f 173/2/5 171/2/5 169/2/5 
f 173/3/5 172/3/5 171/3/5 
f 174/3/5 172/3/5 173/3/5 
f 175/2/5 173/2/5 169/2/5 
f 175/2/5 174/2/5 173/2/5 
f 176/2/5 174/2/5 175/2/5 
f 177/2/5 175/2/5 169/2/5 
f 177/3/5 176/3/5 175/3/5 
f 178/2/5 174/2/5 176/2/5 
f 178/3/5 176/3/5 177/3/5 
f 179/2/5 178/2/5 177/2/5 
f 180/2/5 178/2/5 179/2/5 
f 181/2/5 179/2/5 177/2/5 
f 181/3/5 180/3/5 179/3/5 
f 182/2/5 178/2/5 180/2/5 
f 182/3/5 180/3/5 181/3/5 
f 183/2/5 169/2/5 31/2/5 
f 183/2/5 177/2/5 169/2/5 
f 183/2/5 182/2/5 181/2/5 
f 183/2/5 181/2/5 177/2/5 
f 184/2/5 178/2/5 182/2/5 
f 184/2/5 182/2/5 183/2/5 
f 184/3/5 172/3/5 174/3/5 
f 184/2/5 174/2/5 178/2/5 
f 185/2/5 183/2/5 31/2/5 
f 185/3/5 184/3/5 183/3/5 
f 186/3/5 172/3/5 184/3/5 
f 186/3/5 184/3/5 185/3/5 
f 186/2/5 109/2/5 172/2/5 
f 30/2/5 185/2/5 31/2/5 
f 30/2/5 186/2/5 185/2/5 
f 110/2/5 109/2/5 186/2/5 
f 110/2/5 186/2/5 30/2/5 
f 82/1/5 81/1/5 15/1/5 
f 21/1/5 89/1/5 82/1/5 
f 24/1/5 21/1/5 82/1/5 
f 85/1/5 82/1/5 15/1/5 
f 85/1/5 24/1/5 82/1/5 
f 91/1/5 24/1/5 85/1/5 
f 14/1/5 85/1/5 15/1/5 
f 86/1/5 85/1/5 14/1/5 
f 66/1/5 65/1/5 7/1/5 
f 13/1/5 77/1/5 66/1/5 
f 16/1/5 13/1/5 66/1/5 
f 73/1/5 66/1/5 7/1/5 
f 73/1/5 16/1/5 66/1/5 
f 79/1/5 16/1/5 73/1/5 
f 6/1/5 73/1/5 7/1/5 
f 74/1/5 73/1/5 6/1/5 
f 60/1/5 59/1/5 3/1/5 
f 5/1/5 60/1/5 3/1/5 
f 5/1/5 68/1/5 60/1/5 
f 67/1/5 68/1/5 5/1/5 
f 8/1/5 5/1/5 3/1/5 
f 2/1/5 8/1/5 3/1/5 
f 63/1/5 8/1/5 2/1/5 
f 108/3/5 137/3/5 107/3/5 
f 135/2/5 138/2/5 137/2/5 
f 135/3/5 137/3/5 108/3/5 
f 136/3/5 57/3/5 138/3/5 
f 136/2/5 138/2/5 135/2/5 
f 58/3/5 57/3/5 136/3/5 
f 101/3/6 55/3/6 102/3/6 
f 102/3/6 55/3/6 54/3/6 
f 1/1/6 61/1/6 62/1/6 
f 1/1/6 62/1/6 11/1/6 
f 62/1/6 69/1/6 11/1/6 
f 11/1/6 69/1/6 70/1/6 
f 1/1/6 11/1/6 10/1/6 
f 1/1/6 10/1/6 4/1/6 
f 4/1/6 10/1/6 64/1/6 
f 9/1/6 71/1/6 72/1/6 
f 72/1/6 78/1/6 19/1/6 
f 72/1/6 19/1/6 18/1/6 
f 9/1/6 72/1/6 75/1/6 
f 72/1/6 18/1/6 75/1/6 
f 75/1/6 18/1/6 80/1/6 
f 9/1/6 75/1/6 12/1/6 
f 12/1/6 75/1/6 76/1/6 
f 17/1/6 83/1/6 84/1/6 
f 84/1/6 90/1/6 27/1/6 
f 84/1/6 27/1/6 26/1/6 
f 17/1/6 84/1/6 87/1/6 
f 84/1/6 26/1/6 87/1/6 
f 87/1/6 26/1/6 92/1/6 
f 17/1/6 87/1/6 20/1/6 
f 20/1/6 87/1/6 88/1/6 
f 25/1/6 95/1/6 96/1/6 
f 96/1/6 132/1/6 187/1/6 
f 187/1/6 132/1/6 188/1/6 
f 188/1/6 132/1/6 189/1/6 
f 189/1/6 132/1/6 190/1/6 
f 96/1/6 187/1/6 191/1/6 
f 187/4/6 188/4/6 191/4/6 
f 188/1/6 189/1/6 192/1/6 
f 191/4/6 188/4/6 192/4/6 
f 189/4/6 190/4/6 193/4/6 
f 192/1/6 189/1/6 193/1/6 
f 190/1/6 132/1/6 194/1/6 
f 193/4/6 190/4/6 194/4/6 
f 194/1/6 132/1/6 195/1/6 
f 191/1/6 192/1/6 196/1/6 
f 96/1/6 191/1/6 196/1/6 
f 192/4/6 193/4/6 197/4/6 
f 196/1/6 192/1/6 197/1/6 
f 193/1/6 194/1/6 198/1/6 
f 197/4/6 193/4/6 198/4/6 
f 194/4/6 195/4/6 199/4/6 
f 198/1/6 194/1/6 199/1/6 
f 195/1/6 132/1/6 200/1/6 
f 199/4/6 195/4/6 200/4/6 
f 200/1/6 132/1/6 201/1/6 
f 96/1/6 196/1/6 202/1/6 
f 196/4/6 197/4/6 202/4/6 
f 197/1/6 198/1/6 203/1/6 
f 202/4/6 197/4/6 203/4/6 
f 198/4/6 199/4/6 204/4/6 
f 203/1/6 198/1/6 204/1/6 
f 199/1/6 200/1/6 205/1/6 
f 204/4/6 199/4/6 205/4/6 
f 200/4/6 201/4/6 206/4/6 
f 205/1/6 200/1/6 206/1/6 
f 201/1/6 132/1/6 207/1/6 
f 206/4/6 201/4/6 207/4/6 
f 207/1/6 132/1/6 208/1/6 
f 202/1/6 203/1/6 209/1/6 
f 203/4/6 204/4/6 209/4/6 
f 204/1/6 205/1/6 210/1/6 
f 209/4/6 204/4/6 210/4/6 
f 205/4/6 206/4/6 211/4/6 
f 210/1/6 205/1/6 211/1/6 
f 206/1/6 207/1/6 212/1/6 
f 211/4/6 206/4/6 212/4/6 
f 207/4/6 208/4/6 213/4/6 
f 212/1/6 207/1/6 213/1/6 
f 208/1/6 132/1/6 214/1/6 
f 213/4/6 208/4/6 214/4/6 
f 209/1/6 210/1/6 215/1/6 
f 210/4/6 211/4/6 215/4/6 
f 211/1/6 212/1/6 216/1/6 
f 215/4/6 211/4/6 216/4/6 
f 212/4/6 213/4/6 217/4/6 
f 216/1/6 212/1/6 217/1/6 
f 213/1/6 214/1/6 218/1/6 
f 217/4/6 213/4/6 218/4/6 
f 214/1/6 132/1/6 219/1/6 
f 218/1/6 214/1/6 219/1/6 
f 215/1/6 216/1/6 220/1/6 
f 216/4/6 217/4/6 220/4/6 
f 217/1/6 218/1/6 221/1/6 
f 220/4/6 217/4/6 221/4/6 
f 218/4/6 219/4/6 222/4/6 
f 221/1/6 218/1/6 222/1/6 
f 219/1/6 132/1/6 223/1/6 
f 222/4/6 219/4/6 223/4/6 
f 223/1/6 132/1/6 224/1/6 
f 221/1/6 222/1/6 225/1/6 
f 220/1/6 221/1/6 225/1/6 
f 223/4/6 224/4/6 225/4/6 
f 222/1/6 223/1/6 225/1/6 
f 224/1/6 132/1/6 226/1/6 
f 225/4/6 224/4/6 226/4/6 
f 25/1/6 96/1/6 99/1/6 
f 215/1/6 220/1/6 99/1/6 
f 225/1/6 226/1/6 99/1/6 
f 209/1/6 215/1/6 99/1/6 
f 202/1/6 209/1/6 99/1/6 
f 96/1/6 202/1/6 99/1/6 
f 220/1/6 225/1/6 99/1/6 
f 226/1/6 132/1/6 51/1/6 
f 99/1/6 226/1/6 51/1/6 
f 51/1/6 132/1/6 133/1/6 
f 25/1/6 99/1/6 28/1/6 
f 28/1/6 99/1/6 100/1/6 
f 51/2/6 133/2/6 227/2/6 
f 227/2/6 133/2/6 228/2/6 
f 228/2/6 133/2/6 229/2/6 
f 227/3/6 228/3/6 229/3/6 
f 229/2/6 133/2/6 230/2/6 
f 51/2/6 227/2/6 231/2/6 
f 231/2/6 227/2/6 232/2/6 
f 227/3/6 229/3/6 233/3/6 
f 232/2/6 227/2/6 233/2/6 
f 229/3/6 230/3/6 233/3/6 
f 233/3/6 230/3/6 234/3/6 
f 231/3/6 232/3/6 235/3/6 
f 51/2/6 231/2/6 235/2/6 
f 233/2/6 234/2/6 236/2/6 
f 235/3/6 232/3/6 236/3/6 
f 232/2/6 233/2/6 236/2/6 
f 51/2/6 235/2/6 237/2/6 
f 235/2/6 236/2/6 237/2/6 
f 236/2/6 234/2/6 238/2/6 
f 237/2/6 236/2/6 238/2/6 
f 230/2/6 133/2/6 239/2/6 
f 239/2/6 133/2/6 240/2/6 
f 238/2/6 234/2/6 241/2/6 
f 234/3/6 230/3/6 241/3/6 
f 230/2/6 239/2/6 242/2/6 
f 241/3/6 230/3/6 242/3/6 
f 51/2/6 237/2/6 243/2/6 
f 237/3/6 238/3/6 243/3/6 
f 241/2/6 242/2/6 244/2/6 
f 243/3/6 238/3/6 244/3/6 
f 238/2/6 241/2/6 244/2/6 
f 51/2/6 243/2/6 245/2/6 
f 243/2/6 244/2/6 245/2/6 
f 244/2/6 242/2/6 246/2/6 
f 245/2/6 244/2/6 246/2/6 
f 246/2/6 242/2/6 247/2/6 
f 242/2/6 239/2/6 248/2/6 
f 247/2/6 242/2/6 248/2/6 
f 239/3/6 240/3/6 249/3/6 
f 248/2/6 239/2/6 249/2/6 
f 240/2/6 133/2/6 250/2/6 
f 249/3/6 240/3/6 250/3/6 
f 248/2/6 249/2/6 251/2/6 
f 249/2/6 250/2/6 251/2/6 
f 250/2/6 133/2/6 252/2/6 
f 251/2/6 250/2/6 252/2/6 
f 247/3/6 248/3/6 253/3/6 
f 246/2/6 247/2/6 253/2/6 
f 248/2/6 251/2/6 254/2/6 
f 253/3/6 248/3/6 254/3/6 
f 246/2/6 253/2/6 255/2/6 
f 245/3/6 246/3/6 255/3/6 
f 253/2/6 254/2/6 255/2/6 
f 254/2/6 251/2/6 256/2/6 
f 255/2/6 254/2/6 256/2/6 
f 251/3/6 252/3/6 256/3/6 
f 245/3/6 255/3/6 257/3/6 
f 51/2/6 245/2/6 257/2/6 
f 255/3/6 256/3/6 257/3/6 
f 256/3/6 252/3/6 258/3/6 
f 257/3/6 256/3/6 258/3/6 
f 252/2/6 133/2/6 258/2/6 
f 257/2/6 258/2/6 259/2/6 
f 258/2/6 133/2/6 260/2/6 
f 259/2/6 258/2/6 260/2/6 
f 257/2/6 259/2/6 261/2/6 
f 259/3/6 260/3/6 261/3/6 
f 260/2/6 133/2/6 262/2/6 
f 261/3/6 260/3/6 262/3/6 
f 51/2/6 257/2/6 52/2/6 
f 257/2/6 261/2/6 52/2/6 
f 261/2/6 262/2/6 52/2/6 
f 262/2/6 133/2/6 134/2/6 
f 52/2/6 262/2/6 134/2/6 
# 516 faces

