# 3ds Max Wavefront OBJ Exporter v0.99 - (c)2007 guruware
# File Created: 26.04.2022 20:23:05

mtllib hombro_pez.mtl

#
# object hombro_pez
#

v  -0.1500 0.1500 0.1500
v  -0.1500 -0.1500 -0.1500
v  -0.1500 -0.1500 0.1500
v  -0.1500 0.1500 -0.1500
v  0.1500 -0.1500 0.1500
v  0.1500 -0.1500 -0.1500
v  0.1500 0.1500 0.1500
v  0.1500 0.1500 -0.1500
# 8 vertices

vn -1.0000 0.0000 -0.0000
vn 1.0000 0.0000 -0.0000
vn 0.0000 0.0000 1.0000
vn 0.0000 0.0000 -1.0000
vn 0.0000 -1.0000 -0.0000
vn 0.0000 1.0000 -0.0000
# 6 vertex normals

vt 0.1738 0.5000 0.0000
# 1 texture coords

o hombro_pez
g hombro_pez
usemtl palette
s 1
f 1/1/1 2/1/1 3/1/1 
f 4/1/1 2/1/1 1/1/1 
f 5/1/2 6/1/2 7/1/2 
f 7/1/2 6/1/2 8/1/2 
f 5/1/3 1/1/3 3/1/3 
f 7/1/3 1/1/3 5/1/3 
f 2/1/4 4/1/4 6/1/4 
f 6/1/4 4/1/4 8/1/4 
f 2/1/5 5/1/5 3/1/5 
f 6/1/5 5/1/5 2/1/5 
f 1/1/6 7/1/6 4/1/6 
f 4/1/6 7/1/6 8/1/6 
# 12 faces

